<?xml version="1.0" encoding="UTF-8"?>
<!DOCTYPE svg PUBLIC "-//W3C//DTD SVG 1.1//EN" "http://www.w3.org/Graphics/SVG/1.1/DTD/svg11.dtd">
<!-- Creator: CorelDRAW X7 -->
<svg xmlns="http://www.w3.org/2000/svg" xml:space="preserve" width="210mm" height="297mm" version="1.1" style="shape-rendering:geometricPrecision; text-rendering:geometricPrecision; image-rendering:optimizeQuality; fill-rule:evenodd; clip-rule:evenodd"
viewBox="0 0 21000 29700"
 xmlns:xlink="http://www.w3.org/1999/xlink">
 <defs>
  <style type="text/css">
   <![CDATA[
    .str0 {stroke:#00134C;stroke-width:7.62;stroke-linejoin:bevel}
    .fil2 {fill:none}
    .fil1 {fill:#FEFEFE}
    .fil0 {fill:#373435}
   ]]>
  </style>
 </defs>
 <g id="Camada_x0020_1">
  <metadata id="CorelCorpID_0Corel-Layer"/>
  <path class="fil0 str0" d="M9510 4827c67,-192 278,-510 378,-710 145,-292 278,-559 278,-895 0,-560 -939,-798 -1590,-359 -173,117 -295,304 -424,464 -138,170 -267,321 -414,493 0,0 -307,368 -307,368 -27,34 -75,82 -89,105 -59,-399 -252,-663 -684,-663 -499,0 -943,495 -1142,785 0,0 -1158,1659 -1158,1659 -181,263 -1093,1477 -1093,1701 0,137 61,554 107,680 118,321 515,362 763,174 215,-164 77,-58 257,-167 245,-147 609,-667 789,-908 0,0 320,-432 320,-432 55,-55 20,-22 70,-47 31,69 86,108 140,162 68,68 106,80 176,132 62,48 89,109 154,155 57,41 142,56 188,97 -212,614 -272,373 -24,955 33,76 44,139 74,216 34,91 70,108 102,183 -126,-3 -235,-30 -380,-23 -347,18 -1348,135 -1539,370 -270,333 -358,450 -155,827 -152,258 -409,608 -507,886 -65,183 24,650 212,756 324,184 562,38 795,-194 201,-200 291,-416 368,-458 0,214 -3,362 78,530 224,463 663,117 900,10 105,85 271,299 485,299 206,0 265,-96 374,-125 170,-45 157,43 358,-87 84,-54 49,-41 162,-5 242,78 319,-11 496,-111 29,27 -5,-5 29,32 5,5 19,21 28,31 25,26 24,24 51,45 291,225 376,190 683,148 83,87 220,188 386,188 186,0 457,-208 570,-333 63,-69 126,-167 185,-258 55,-84 109,-197 171,-274 -10,60 -35,140 -35,193 0,254 214,469 479,469 490,0 828,-226 1219,-434 58,197 201,415 440,415 191,0 349,-132 444,-212 117,99 250,254 501,166 184,-64 290,-201 429,-272 206,295 738,279 1002,67 42,41 41,55 83,101 25,29 59,63 87,88 421,360 923,-337 1111,-628 84,-130 363,-185 590,-299 487,-245 1210,-550 1210,-1178 0,-902 -1170,-780 -1773,-638 -177,42 -500,167 -581,122 -504,-278 -779,35 -916,-29 -321,-151 -400,-27 -541,-66 -99,-27 -157,-186 -450,-186 -467,0 -334,66 -594,172 0,0 -62,-50 -62,-50 34,-76 69,-98 102,-189 37,-105 13,-128 111,-178 258,-132 152,-135 289,-285 415,72 347,36 649,-204 124,-99 253,-168 350,-306 163,-231 349,-572 523,-781 106,330 222,700 350,1015 73,179 148,306 334,361 549,162 941,282 1014,-436 12,-116 66,-162 66,-271 0,-427 -331,-1231 -412,-1698 330,-251 1024,-409 1315,-712 70,-72 303,-553 316,-684 26,-272 -199,-520 -472,-520 -692,0 -579,103 -1023,238 -56,-63 -59,-99 -114,-156 -305,-324 -913,-342 -1261,-81 -127,96 -192,212 -281,337 -2,4 -6,9 -9,12 0,0 -33,36 -33,36 0,0 -95,-112 -95,-112 -312,-336 -815,-332 -1256,-332 -712,0 -1382,243 -1987,349 -38,-41 -55,-98 -93,-154 -284,-428 -892,-251 -1226,-3 -240,177 -193,235 -312,421 0,0 -109,130 -109,130z"/>
 </g>
 <g id="Camada_x0020_1_0">
  <metadata id="CorelCorpID_1Corel-Layer"/>
  <path class="fil1 str0" d="M11038 8351c105,0 125,39 198,28 275,-39 654,-174 1036,-137 295,28 274,563 -38,540 -456,-33 -439,-27 -927,53 -357,59 -247,34 -419,296 -95,145 -178,286 -274,440 0,0 -812,1309 -812,1309 -48,80 -309,550 -394,580 -140,48 -122,139 -214,166 11,-97 60,-109 49,-204 -82,13 -17,18 -100,62 6,-54 10,-76 34,-120 -2,-1 -6,1 -7,1 0,0 -23,0 -23,0 -69,-10 20,44 -42,-14 0,0 957,-1734 957,-1734 105,-186 213,-393 316,-570 -218,17 -876,232 -980,231 -153,-2 77,-22 -115,-34 -66,-4 -114,9 -172,11 33,-76 214,-106 266,-173 0,0 -151,19 -151,19 11,-48 -7,-12 29,-43 114,-99 94,-10 49,-99 290,-109 572,-195 874,-287 138,-43 321,-82 448,-132 140,-55 88,-189 412,-189z"/>
  <path class="fil2 str0" d="M9269 11438c27,-136 17,-38 -13,-80 -39,86 -23,24 13,80z"/>
  <path class="fil2 str0" d="M9376 9072c-27,24 21,7 22,7 47,13 -5,-23 -22,-7z"/>
  <path class="fil1 str0" d="M10967 10400c0,-506 939,-1113 1286,-1113 446,0 225,516 50,679 -54,52 15,-6 -62,33 -73,37 -69,80 -136,105 0,0 97,-212 97,-212 -11,16 -59,55 -80,87 -18,-23 -65,24 2,-94 -48,6 -9,23 -48,-19 47,-37 96,-162 106,-225 -268,16 -689,370 -753,541 142,5 344,-12 475,7 304,45 312,414 -17,636 -127,87 -239,187 -388,268 -108,59 -542,290 -667,318 0,0 -268,6 -268,6 49,-47 136,-98 200,-133 -41,-20 -81,-3 -135,7 3,-4 8,-10 10,-12 2,-3 7,-9 10,-12 0,0 60,-76 60,-76 29,-110 872,-407 910,-611 -231,28 -652,151 -652,-180z"/>
  <path class="fil2 str0" d="M10128 11228c0,0 47,-95 47,-95 0,0 3,15 3,15 0,0 -50,80 -50,80z"/>
  <path class="fil1 str0" d="M14086 11320c-104,0 -172,-81 -200,-181 -74,-267 79,-668 201,-892 539,-987 1190,-794 1190,-368 0,0 0,154 0,154 0,219 -191,523 -342,675 -237,237 -173,-29 -158,-150 -53,20 -71,46 -125,48 126,-355 246,-337 96,-560 -126,3 -181,59 -239,120 -152,161 -397,593 -265,809 157,-7 323,-247 340,-290 3,4 6,10 6,13 0,0 2,84 2,84 0,0 101,6 101,6 0,0 -87,152 -87,152 15,9 3,4 31,14 1,0 13,0 22,3 -116,175 -313,363 -573,363z"/>
  <path class="fil1 str0" d="M7061 11197c-23,-68 308,-644 343,-706 79,-138 142,-295 217,-420 78,-129 113,-321 291,-321 83,0 167,-15 167,90 0,37 -740,1329 -806,1405 -45,51 -16,16 -34,25 0,0 -142,117 -142,117 0,0 49,-173 49,-173 0,0 -81,67 -81,67 0,0 -4,-84 -4,-84z"/>
  <path class="fil1 str0" d="M17186 9852c-94,189 -244,246 -438,354 -235,130 -667,366 -932,459 -108,38 -47,1 -144,8 -47,80 -366,593 -443,622 -68,26 24,-42 -63,28 -42,34 -68,90 -126,114 0,0 85,-229 85,-229 -49,28 -59,56 -90,102 -2,-4 -4,-11 -4,-14 0,0 -6,-27 -6,-27 -1,-4 -1,-10 -2,-13 0,-3 5,-4 -1,-36 -15,-84 16,28 -9,-25 -40,-84 3,63 -14,-21 0,0 399,-678 399,-678 139,-216 299,-592 464,-592 414,0 168,177 51,425 136,-42 352,-169 469,-239 161,-96 308,-174 392,-304 -252,0 -480,26 -718,55 -274,33 -332,86 -496,34 -57,-18 -90,-10 -155,-18 78,-67 196,-65 212,-114 0,0 -126,4 -126,4 0,0 66,-55 66,-55 67,-60 -103,-36 143,-90 413,-90 749,-171 1184,-171 266,0 433,159 302,421z"/>
  <path class="fil2 str0" d="M15724 10654c-2,2 6,5 6,5 0,0 -6,-5 -6,-5z"/>
  <path class="fil1 str0" d="M4827 9615c105,-26 1651,-455 1651,13 0,312 -239,436 -504,571 0,0 -836,418 -836,418 -252,115 -81,-160 -398,316 -33,50 -66,101 -101,149 -40,53 -70,105 -105,148 -75,90 -34,-2 -126,83 -40,37 -64,84 -118,103 25,-69 67,-135 73,-208 -47,20 -18,3 -62,38 -27,22 -15,15 -34,35 10,-143 46,-68 -35,-107 0,0 627,-1048 627,-1048 216,-361 159,-153 290,-282 -80,8 -149,24 -215,32 -41,5 -37,12 -78,0 -94,-29 105,-25 -199,-38 55,-71 161,-45 222,-116 0,0 -135,6 -135,6 31,-39 55,-34 76,-76 0,0 7,-37 7,-37z"/>
  <path class="fil2 str0" d="M4362 11191c-6,49 11,1 11,1 22,-1 -6,-43 -11,-1z"/>
  <path class="fil1 str0" d="M12351 10460c58,-49 14,-14 28,-32 92,-114 165,24 250,-135 0,0 407,-693 407,-693 75,-119 123,-236 298,-236 94,0 131,1 216,48 0,0 9,61 9,61 11,141 -472,684 -482,817 12,-7 148,-27 192,-34 122,-19 109,-16 177,44 61,-145 179,-318 256,-458 98,-178 241,-421 543,-256 0,0 9,61 9,61 7,94 -711,1190 -850,1402 -155,237 -108,153 -165,174 -33,12 -14,-2 -51,32 -51,46 -76,97 -140,125 0,0 107,-280 107,-280 -72,66 -58,111 -143,127 5,-30 13,-49 9,-74 0,0 -9,-26 -9,-26 -2,-3 -6,-9 -7,-11 -2,-4 -14,-16 -17,-22 63,-110 247,-407 275,-517 -501,79 -358,-52 -599,349 -96,161 -122,269 -235,316 -107,44 -63,107 -179,165 0,0 87,-261 87,-261 0,0 -65,64 -65,64 -28,35 -2,15 -40,52 0,0 -23,-68 -23,-68 -31,-85 -46,31 -18,-85 0,0 199,-461 199,-461 -83,-60 -82,-7 -169,-55 0,0 121,-51 121,-51 29,-10 82,-31 91,-38 0,0 -135,-4 -135,-4 0,0 53,-40 53,-40z"/>
  <path class="fil1 str0" d="M8620 10618c5,-26 208,-292 247,-344 212,-282 384,-456 557,-678 106,-137 199,-180 344,-261 -33,67 -62,108 -95,172 74,-65 39,-46 114,-76 -86,197 79,-4 -107,228 -31,40 -56,69 -85,108 -59,77 -108,137 -168,218 -111,147 -220,306 -326,465 -56,85 -425,659 -426,751 -3,129 -15,189 -76,294 0,0 -54,-152 -54,-152 -9,13 -21,-8 -22,96 -29,-7 -24,-12 -36,-18 0,0 -67,-20 -67,-20 -18,-122 -45,-239 -66,-363 -9,-56 -22,-128 -30,-181 -25,-178 -28,-130 -61,-162 -44,69 -79,123 -132,194 -61,81 -175,258 -247,295 -187,98 -100,100 -220,144 0,0 99,-220 99,-220 -100,50 -35,72 -135,100 23,-137 54,-57 -21,-94 50,-111 124,-204 192,-306 70,-104 130,-185 197,-285 57,-85 259,-396 316,-437 352,-257 238,242 308,532z"/>
  <path class="fil1 str0" d="M5830 10741c24,-23 33,-21 52,-37 81,-65 -59,-22 52,-63 171,-65 73,76 265,-179 0,0 468,-612 468,-612 211,-283 142,-96 236,-323 58,-139 226,-223 395,-192 40,134 -95,440 -141,578 -50,151 -111,437 -168,561 46,54 58,34 93,119 60,145 -5,223 -180,225 -12,122 -47,266 -72,390 -25,122 -29,95 -67,144 -3,3 -7,7 -9,11 -35,49 -36,99 -72,147 -32,-53 -14,-116 -28,-200 -20,35 -14,49 -29,79 -27,53 3,0 -25,36 -2,3 -10,14 -11,11 -2,-4 -8,6 -12,9 -8,-133 -38,-53 -46,-78 -1,-4 -9,0 -18,-3 0,0 64,-504 64,-504 -71,-5 -302,10 -350,35 -38,20 -287,363 -361,408 -68,41 -25,-24 -106,49 -56,50 -46,59 -114,91 0,0 31,-133 31,-133 -52,-64 4,34 -17,-73 0,0 -19,-44 -19,-44 54,-66 175,-258 239,-295 -46,-46 -113,-50 -146,-68 0,0 225,-78 225,-78 0,0 -129,-11 -129,-11z"/>
  <path class="fil1 str0" d="M8394 8720c110,-48 473,-263 560,-263 98,0 140,74 158,167 -55,96 -170,125 -278,169 -110,45 -199,98 -311,134 29,93 77,125 92,188 0,0 24,182 24,182 -50,-30 -62,-42 -94,-90 0,0 -3,87 -3,87 -107,-53 -46,-11 -76,-16 -49,-8 -149,-177 -162,-216 -62,19 -175,87 -237,125 -67,41 -78,27 -236,58 0,0 76,-86 76,-86 46,-42 43,13 50,-58 -51,59 -87,2 -87,2 58,-43 8,-9 30,-41 0,0 16,-24 16,-24 36,-47 185,-140 233,-157 -31,-103 -111,-134 -87,-220 20,-70 94,-141 159,-156 97,59 94,145 173,215z"/>
  <path class="fil1 str0" d="M11237 4926c358,-157 2020,-434 2469,-379 664,82 667,528 330,959 -155,198 -1027,633 -1297,781 14,362 203,1057 203,1508 0,103 -24,41 -62,72 -68,57 -7,276 -67,372 -64,-28 -56,-69 -109,-200 -57,-144 -34,-161 -97,-183 0,0 -12,280 -12,280 -80,-4 -31,11 -116,-138 0,0 -71,80 -71,80 -68,-71 -328,-1343 -335,-1465 0,0 -495,196 -495,196 -30,-36 -1,11 -20,-32 -1,-2 1,-11 1,-16 -109,-2 -120,56 -169,131 -42,63 -79,118 -124,185 -67,101 -614,983 -653,1003 0,0 -54,0 -54,0 -12,-42 -202,235 -271,268 -6,-144 143,-330 119,-444 -6,32 -56,87 -85,120 -42,49 -47,78 -116,94 0,0 37,-150 37,-150 -120,-55 -13,-4 -61,-14 0,0 317,-679 317,-679 191,-376 714,-1206 970,-1596 69,-105 159,-200 202,-328 0,0 -382,45 -382,45 0,0 -3,-46 -3,-46 1,-43 16,13 3,-23 0,0 -332,2 -332,2 41,-154 340,-96 411,-228 0,0 -247,6 -247,6 26,-73 102,-80 183,-114 -52,-68 55,59 -38,-29 0,0 -29,-38 -29,-38z"/>
  <path class="fil2 str0" d="M10212 7924c0,0 0,0 0,0z"/>
  <path class="fil1 str0" d="M8242 6875c324,-79 289,-14 423,-180 320,-397 894,-1208 1172,-1529 42,-48 128,-92 155,-134 90,-140 25,-252 211,-387 109,-80 597,-310 597,-34 0,255 -583,1694 -569,1949 11,48 -4,10 28,44 13,13 22,16 43,35 103,90 301,539 -232,542 0,0 -238,931 -238,931 -52,19 -52,48 -84,130 -30,78 -45,163 -97,203 -43,-92 -17,-248 -35,-357 -22,25 -10,6 -31,44 0,0 -33,90 -33,90 -9,27 -8,30 -21,53 -28,46 -12,22 -37,39 -35,-53 -31,-97 -42,-172 0,0 -71,90 -71,90 -61,-132 88,-792 96,-993 -151,6 -337,33 -489,47 -122,11 -134,-5 -196,76 0,0 -600,695 -600,695 -92,96 -8,-28 -121,30 -39,20 -190,185 -273,223 5,-69 179,-311 216,-425 -29,44 -153,166 -231,193 4,-81 24,-87 62,-148 -93,-51 -21,9 -83,-19 77,-175 344,-457 461,-651 0,0 -267,-31 -267,-31 14,-108 287,-64 396,-170 -90,-6 -165,7 -224,-36 67,-60 130,-52 185,-99 -59,-13 -49,0 -71,-49z"/>
  <path class="fil2 str0" d="M7819 7885c-4,4 12,9 14,10 0,0 -14,-10 -14,-10z"/>
  <path class="fil2 str0" d="M8122 8049c-2,2 5,5 6,5 0,0 -6,-5 -6,-5z"/>
  <path class="fil1 str0" d="M13875 6541c-97,-85 -219,-147 -230,-312 -9,-145 135,-220 242,-275 239,-124 441,-150 528,-281 0,0 512,-800 512,-800 153,-229 217,-449 587,-449 476,0 385,274 192,533 -34,46 -64,91 -97,135 -34,46 -53,88 -89,131 0,0 1341,-580 1341,-580 165,-66 75,16 139,22 70,7 400,-134 291,-15 -53,57 -243,154 -280,186 0,0 195,9 195,9 -17,59 -99,107 -151,136 0,0 28,13 28,13 59,33 31,0 56,45 -98,33 -273,147 -378,201 -132,68 -254,127 -387,193 -225,113 -543,295 -769,368 23,150 87,347 131,498 47,163 81,313 127,472 58,200 220,799 243,985 0,0 -62,19 -62,19 -7,67 -5,127 -4,194 0,0 -11,132 -11,132 -1,5 -5,19 -6,17 -1,-3 -4,11 -7,16 -67,-38 -23,8 -66,-81 -34,-70 -90,-204 -151,-245 0,0 8,260 8,260 -105,-32 -35,-44 -141,-141 0,0 -36,97 -36,97 -161,-190 -560,-1746 -678,-1885 -177,93 -202,196 -313,356 -94,134 -180,260 -274,401 -101,151 -451,724 -545,787 -29,14 -23,-32 -96,17 -143,97 -157,227 -282,251 0,0 187,-471 187,-471 -121,61 -100,176 -244,229 0,0 47,-205 47,-205 -64,15 -45,18 -96,34 13,-93 201,-408 257,-506 0,0 282,-491 282,-491z"/>
  <path class="fil2 str0" d="M13434 7490c0,-3 -4,-9 -6,-6 -24,34 8,8 8,9 0,0 -2,-2 -2,-3z"/>
  <path class="fil1 str0" d="M8655 3463c57,-72 69,-134 137,-191 227,-190 948,-309 914,83 -19,221 -1048,2093 -1172,2341 -224,451 -464,872 -688,1319 -242,485 -444,847 -712,1295 -40,-12 -41,-24 -68,-49 -45,68 -121,129 -178,207 -47,64 -91,161 -167,189 -40,-106 138,-429 143,-587 -51,54 -191,278 -255,295 -23,-64 25,-183 45,-264 -98,29 -50,50 -145,77 19,-117 211,-531 272,-665 99,-215 189,-424 289,-637 100,-211 191,-421 296,-630 106,-208 185,-430 291,-628 0,0 -856,912 -856,912 -105,105 -176,210 -282,202 0,0 -22,-1 -22,-1 -84,192 -111,398 -184,421 -60,-119 7,-330 -57,-447 -4,-6 -22,-21 -25,-30 -2,-10 -9,-10 -14,-15 -18,83 -33,216 -80,287 0,0 -20,22 -20,22 -10,-9 -28,1 -46,-93 -9,-43 -8,-82 -15,-120 -59,41 -70,81 -102,97 -8,-335 -22,-545 -4,-871 12,-201 31,-129 -22,-190 -35,102 -336,467 -421,582 -248,332 -943,1248 -1205,1554 -52,60 -82,74 -120,131 -76,-30 -7,-23 -44,-34 -68,-20 -401,406 -329,203 2,-8 27,-55 32,-65 20,-40 37,-75 61,-114 53,-87 61,-137 107,-230 -66,62 -151,183 -249,211 7,-103 58,-142 75,-230 -54,41 -36,31 -114,56 21,-98 261,-429 327,-529 0,0 698,-1000 698,-1000 390,-531 820,-1213 1215,-1737 73,-96 115,-146 196,-229 115,-117 349,-265 558,-265 259,0 138,554 115,765 -31,284 -82,581 -101,856 0,0 1926,-2254 1926,-2254z"/>
  <path class="fil0 str0" d="M12392 5245c72,238 -234,518 -438,824 -28,42 -28,54 -62,100 182,-87 1238,-636 1369,-801 33,-42 42,-49 74,-80 49,-47 53,-44 82,-104 -361,0 -693,19 -1025,61z"/>
  <path class="fil0 str0" d="M9036 6767c142,4 709,-77 808,-128 0,0 21,-60 21,-60 7,-29 7,-47 15,-79 11,-46 27,-84 40,-131 32,-110 16,-180 51,-297 57,-188 102,-429 147,-579 -5,3 -13,1 -15,9 -13,42 -14,-4 -69,55 -21,22 -46,59 -67,86 0,0 -406,482 -406,482 -90,102 -173,211 -262,317 -54,63 -80,91 -132,158 -51,66 -73,105 -131,167z"/>
  <path class="fil0 str0" d="M5156 9875c283,29 196,129 52,348 0,0 -35,98 -35,98 98,-89 644,-281 842,-553 -213,-6 -300,3 -519,28 0,0 -259,31 -259,31 -106,32 -35,3 -81,48z"/>
  <path class="fil0 str0" d="M6295 10653c93,0 183,-19 275,-32 298,-42 124,27 325,-671 -77,38 -28,13 -86,81 -151,176 -398,453 -514,622z"/>
 </g>
</svg>
